<svg id="Layer_1" data-name="Layer 1" xmlns="http://www.w3.org/2000/svg" viewBox="0 0 675.55 192.11"><defs><style>.cls-1,.cls-2,.cls-3,.cls-4,.cls-5,.cls-7,.cls-8,.cls-9{fill:#7f0952;}.cls-1{opacity:0.77;}.cls-2{opacity:0.2;}.cls-3,.cls-6{opacity:0.4;}.cls-5{opacity:0.58;}.cls-7{opacity:0.8;}.cls-7,.cls-8{isolation:isolate;}.cls-8{opacity:0.72;}.cls-9{font-size:126px;font-family:OpenSans-Light, Open Sans;}</style></defs><title>Artboard 2</title><g id="path_P" data-name="path P"><path class="cls-1" d="M563.52,60c0,24.05-8.82,44.75-29.27,54.32-.33,0-30.22,0-30.22,0V90.54s18.34-12.67,20-46c0,0,0-.25-.13-.67,3.4.25,6.09.09,6.79-1a4.45,4.45,0,0,0-4.18-6.66c-3.44,0-2.9,5.67-2.61,7.65C516,43.3,504,40.24,504,40.24V0A60,60,0,0,1,563.52,60Z"/><path class="cls-2" d="M534.79,114.35c6.71,7.2,2.69,10.8,0,12.62H504V114.35Z"/><path class="cls-2" d="M534.79,139.27c6.71,7.2,2.69,10.81,0,12.63H504V139.27Z"/><path class="cls-3" d="M534.79,151.9c6.71,7.2,2.69,10.8,0,12.62H504V151.9Z"/><path class="cls-4" d="M526.47,36.23a4.45,4.45,0,0,1,4.18,6.66c-.7,1.08-3.39,1.24-6.79,1C523.57,41.9,523,36.23,526.47,36.23Z"/><path class="cls-5" d="M523.86,43.88l.13.67c-1.66,33.32-20,46-20,46V40.24S515.91,43.3,523.86,43.88Z"/><g id="_Group_" data-name="&lt;Group&gt;" class="cls-6"><path class="cls-4" d="M534.79,126.64c6.71,7.21,2.69,10.85,0,12.63H504V126.64Z"/></g></g><path class="cls-7" d="M146.85,2.48c32.25,0,58.41,36.27,58.41,81s-26.16,81-58.41,81h-.54V63.84h0L145.23,2.53C145.77,2.48,146.31,2.48,146.85,2.48Z"/><path class="cls-8" d="M145.23,2.53l1.08,61.31-29.56,24.3c0-1.53.08-3.06.08-4.64,0-20.24-5.34-38.75-14.2-52.91C113,13.91,128.22,3.19,145.23,2.53Z"/><path class="cls-4" d="M116.83,83.5c0,1.54,0,3.11-.08,4.64l0,0-15.28,12.38h0l0,0-.25-.21s-.08,0-.12-.08l-.17-.12s-.08-.09-.12-.09l-1.12-.91-.7-.58-.25-.2L98,97.66,88.64,89.8l-.09-.09c-.12-2.07-.16-4.14-.16-6.21,0-20.24,5.34-38.75,14.2-52.91C111.49,44.75,116.83,63.26,116.83,83.5Z"/><path class="cls-8" d="M102.63,30.55c-8.86,14.2-14.2,32.71-14.2,52.91,0,2.07,0,4.14.17,6.21L57.84,63.76,58.91,2.44C76.38,2.69,92,13.54,102.63,30.55Z"/><path class="cls-7" d="M59,2.48,57.88,63.8V164.48C25.88,164.07,0,128,0,83.5c0-44.75,26.16-81,58.42-81Z"/><text class="cls-9" transform="translate(205.26 158.21) scale(0.7)">ONIKA</text><text class="cls-9" transform="translate(462.67 158.21)"><tspan xml:space="preserve">   </tspan></text><text class="cls-9" transform="translate(560.86 158.21) scale(0.7)">UK</text></svg>